<svg width="25" height="18" viewBox="0 0 25 18" fill="none" xmlns="http://www.w3.org/2000/svg">
<path d="M0 0.381C0 0.1707 0.1707 0 0.381 0C0.5913 0 0.762 0.1707 0.762 0.381V17.2341H23.7489C23.9592 17.2341 24.1299 17.4048 24.1299 17.6151C24.1299 17.8254 23.9592 17.9961 23.7489 17.9961H0.381C0.1707 17.9961 0 17.8254 0 17.6151V0.381ZM20.3994 3.6423C20.8077 3.6423 21.1791 3.8088 21.4485 4.0776L21.4509 4.08C21.7191 4.3491 21.8853 4.7202 21.8853 5.1282C21.8853 5.5365 21.7188 5.9079 21.45 6.1773L21.4476 6.1797C21.1785 6.4479 20.8074 6.6141 20.3994 6.6141C20.0871 6.6141 19.7964 6.5166 19.5564 6.3507L15.3375 9.9645C15.4326 10.1601 15.4857 10.3791 15.4857 10.6101C15.4857 11.0184 15.3192 11.3898 15.0504 11.6592L15.048 11.6616C14.7789 11.9298 14.4078 12.096 13.9998 12.096C13.5915 12.096 13.2201 11.9295 12.9507 11.6607L12.9483 11.6583C12.6801 11.3892 12.5139 11.0181 12.5139 10.6101C12.5139 10.4427 12.5415 10.2819 12.5931 10.1313L10.47 8.7201C10.2075 8.9532 9.8622 9.0948 9.4854 9.0948C9.225 9.0948 8.9796 9.027 8.766 8.9082L4.9983 12.8382C5.1366 13.0638 5.2164 13.329 5.2164 13.6116C5.2164 14.0199 5.0499 14.3913 4.7811 14.6607L4.7787 14.6631C4.5096 14.9313 4.1385 15.0975 3.7305 15.0975C3.3222 15.0975 2.9508 14.931 2.6814 14.6622L2.679 14.6598C2.4108 14.3907 2.2446 14.0196 2.2446 13.6116C2.2446 13.2033 2.4111 12.8319 2.6799 12.5625L2.6823 12.5601C2.9514 12.2919 3.3225 12.1257 3.7305 12.1257C3.9909 12.1257 4.2363 12.1935 4.4499 12.3123L8.2176 8.3823C8.0793 8.1567 7.9995 7.8915 7.9995 7.6089C7.9995 7.2006 8.166 6.8292 8.4348 6.5598L8.4372 6.5574C8.7063 6.2892 9.0774 6.123 9.4854 6.123C9.8937 6.123 10.2651 6.2895 10.5345 6.5583L10.5369 6.5607C10.8051 6.8298 10.9713 7.2009 10.9713 7.6089C10.9713 7.7763 10.9437 7.9371 10.8921 8.0877L13.0152 9.4989C13.2777 9.2658 13.623 9.1242 13.9998 9.1242C14.3121 9.1242 14.6028 9.2217 14.8428 9.3876L19.0617 5.7738C18.9666 5.5782 18.9135 5.3592 18.9135 5.1282C18.9135 4.7199 19.08 4.3485 19.3488 4.0791L19.3512 4.0767C19.6203 3.8085 19.9914 3.6423 20.3994 3.6423ZM20.9118 4.6155C20.7813 4.485 20.6001 4.4043 20.3994 4.4043C20.1984 4.4043 20.0172 4.485 19.8876 4.6149C19.7562 4.7463 19.6755 4.9275 19.6755 5.1282C19.6755 5.3292 19.7562 5.5104 19.8861 5.64C20.0172 5.7714 20.1984 5.8521 20.3994 5.8521C20.6001 5.8521 20.7813 5.7714 20.9112 5.6415C21.0426 5.5104 21.1233 5.3292 21.1233 5.1282C21.1233 4.9275 21.0426 4.7463 20.9118 4.6155ZM14.5122 10.0974C14.3817 9.9669 14.2005 9.8862 13.9998 9.8862C13.7988 9.8862 13.6176 9.9669 13.488 10.0968C13.3566 10.2279 13.2759 10.4091 13.2759 10.6101C13.2759 10.8108 13.3566 10.992 13.4865 11.1219C13.6176 11.2533 13.7988 11.334 13.9998 11.334C14.2005 11.334 14.3817 11.2533 14.5116 11.1234C14.643 10.992 14.7237 10.8108 14.7237 10.6101C14.7237 10.4091 14.643 10.2279 14.5122 10.0974ZM9.9978 7.0962C9.8676 6.9657 9.6864 6.885 9.4854 6.885C9.2847 6.885 9.1035 6.9657 8.9736 7.0956C8.8422 7.227 8.7615 7.4082 8.7615 7.6089C8.7615 7.8099 8.8422 7.9911 8.9721 8.1207C9.1035 8.2521 9.2847 8.3328 9.4854 8.3328C9.6864 8.3328 9.8676 8.2521 9.9972 8.1222C10.1286 7.9911 10.2093 7.8099 10.2093 7.6089C10.2093 7.4082 10.1286 7.227 9.9978 7.0962ZM4.2429 13.0989C4.1127 12.9684 3.9315 12.8877 3.7305 12.8877C3.5298 12.8877 3.3486 12.9684 3.2187 13.0983C3.0873 13.2294 3.0066 13.4106 3.0066 13.6116C3.0066 13.8123 3.0873 13.9935 3.2172 14.1234C3.3486 14.2548 3.5298 14.3355 3.7305 14.3355C3.9315 14.3355 4.1127 14.2548 4.2423 14.1249C4.3737 13.9935 4.4544 13.8123 4.4544 13.6116C4.4544 13.4106 4.3737 13.2294 4.2429 13.0989Z" fill="#676EDA"/>
</svg>
