<svg width="14" height="14" viewBox="0 0 14 14" fill="none" xmlns="http://www.w3.org/2000/svg">
<rect x="1" y="1" width="12" height="12" rx="2.4" fill="#FFD8CC"/>
<path d="M7.21213 4.38748C7.09497 4.27032 6.90503 4.27032 6.78787 4.38748L4.87868 6.29667C4.76152 6.41382 4.76152 6.60377 4.87868 6.72093C4.99584 6.83809 5.18579 6.83809 5.30294 6.72093L7 5.02387L8.69706 6.72093C8.81421 6.83809 9.00416 6.83809 9.12132 6.72093C9.23848 6.60377 9.23848 6.41382 9.12132 6.29667L7.21213 4.38748ZM6.7 9.39961C6.7 9.5653 6.83431 9.69961 7 9.69961C7.16568 9.69961 7.3 9.5653 7.3 9.39961L6.7 9.39961ZM6.7 4.59961L6.7 9.39961L7.3 9.39961L7.3 4.59961L6.7 4.59961Z" fill="#EE420B"/>
</svg>
