<svg width="14" height="14" viewBox="0 0 14 14" fill="none" xmlns="http://www.w3.org/2000/svg">
<rect x="1" y="1" width="12" height="12" rx="2.4" fill="#B2FECC"/>
<path d="M7.3 4.59961C7.3 4.43392 7.16569 4.29961 7 4.29961C6.83431 4.29961 6.7 4.43392 6.7 4.59961L7.3 4.59961ZM6.78787 9.61174C6.90502 9.7289 7.09497 9.7289 7.21213 9.61174L9.12132 7.70255C9.23848 7.5854 9.23848 7.39545 9.12132 7.27829C9.00416 7.16113 8.81421 7.16113 8.69706 7.27829L7 8.97535L5.30294 7.27829C5.18579 7.16113 4.99584 7.16113 4.87868 7.27829C4.76152 7.39545 4.76152 7.5854 4.87868 7.70255L6.78787 9.61174ZM6.7 4.59961L6.7 9.39961L7.3 9.39961L7.3 4.59961L6.7 4.59961Z" fill="#1A7236"/>
</svg>
