<svg width="57" height="26" viewBox="0 0 57 26" fill="none" xmlns="http://www.w3.org/2000/svg">
<rect width="56.5461" height="26" rx="13" fill="#D4D5FF"/>
<path fill-rule="evenodd" clip-rule="evenodd" d="M29.7619 17.5022C29.5986 17.2855 29.5103 17.0214 29.5103 16.75H29.5115V16.6875V4.25C29.5115 3.91848 29.6432 3.60054 29.8776 3.36612C30.112 3.1317 30.43 3 30.7615 3C31.093 3 31.411 3.1317 31.6454 3.36612C31.8798 3.60054 32.0115 3.91848 32.0115 4.25V13.6862L33.4115 12.2862C33.5276 12.1701 33.6654 12.078 33.817 12.0151C33.9687 11.9522 34.1313 11.9198 34.2954 11.9197C34.4596 11.9197 34.6222 11.952 34.7739 12.0147C34.9256 12.0775 35.0635 12.1696 35.1796 12.2856C35.2958 12.4017 35.3879 12.5395 35.4508 12.6911C35.5137 12.8428 35.5461 13.0054 35.5461 13.1696C35.5462 13.3337 35.5139 13.4963 35.4511 13.648C35.3884 13.7998 35.2963 13.9376 35.1803 14.0537L31.8203 17.4125C31.6764 17.6427 31.4615 17.8198 31.2081 17.917C30.9547 18.0143 30.6766 18.0264 30.4156 17.9516C30.1547 17.8767 29.9253 17.719 29.7619 17.5022ZM26.7987 8.49776C26.962 8.71453 27.0504 8.97858 27.0504 9.25V9.3125V21.75C27.0504 22.0815 26.9187 22.3995 26.6842 22.6339C26.4498 22.8683 26.1319 23 25.8004 23C25.4688 23 25.1509 22.8683 24.9165 22.6339C24.6821 22.3995 24.5504 22.0815 24.5504 21.75V12.3138L23.1491 13.7138C23.0338 13.8331 22.8959 13.9284 22.7434 13.9939C22.5909 14.0594 22.4268 14.0939 22.2609 14.0953C22.0949 14.0968 21.9303 14.0651 21.7767 14.0023C21.623 13.9394 21.4835 13.8466 21.3661 13.7292C21.2488 13.6119 21.1559 13.4723 21.0931 13.3187C21.0302 13.1651 20.9986 13.0005 21 12.8345C21.0015 12.6685 21.036 12.5045 21.1015 12.352C21.167 12.1995 21.2622 12.0616 21.3816 11.9463L24.7404 8.58751C24.8842 8.35734 25.0991 8.18025 25.3525 8.08299C25.6059 7.98574 25.8841 7.97361 26.145 8.04844C26.4059 8.12327 26.6353 8.28098 26.7987 8.49776Z" fill="#676EDA"/>
</svg>
